# xmcd CD database file
#
# Track frame offsets:
#	150
#	19546
#	51477
#	73837
#	104515
#	131336
#	163895
#	190438
#	218768
#	231158
#	259357
#	285181
#
# Disc length: 4160 seconds
#
# Revision: 1
# Processed by: cddbd v1.5.2PL0 Copyright (c) Steve Scherf et al.
# Submitted via: CDex 1.70beta2
#
DISCID=b4103e0c
DTITLE=Salsa Fuerte Feat. Yumarya - Salsa Fuerte Feat. Yumarya
DYEAR=2011
DGENRE=Salsa
TTITLE0=African Roots
TTITLE1=Cuban Blues
TTITLE2=Persian Clave
TTITLE3=New Morning
TTITLE4=South Sudan
TTITLE5=Sueno
TTITLE6=Ritmo Pati
TTITLE7=Adivino
TTITLE8=Un Mojito
TTITLE9=Ochosi
TTITLE10=Blue Bird
TTITLE11=Cojelo Suave
EXTD=YEAR: 2011
EXTT0=
EXTT1=
EXTT2=
EXTT3=
EXTT4=
EXTT5=
EXTT6=
EXTT7=
EXTT8=
EXTT9=
EXTT10=
EXTT11=
PLAYORDER=
